HIERARCHY
ROOT Hips
{
	OFFSET 0.000000 0.000000 0.000000
	CHANNELS 6 Xposition Yposition Zposition Xrotation Yrotation Zrotation
	JOINT LeftUpLeg_virtual
	{
		OFFSET 0.000000 0.000000 0.000000
		CHANNELS 3 Xrotation Yrotation Zrotation
		JOINT LeftUpLeg
		{
			OFFSET 11.394100 -6.187798 -0.413800
			CHANNELS 3 Xrotation Yrotation Zrotation
			JOINT LeftLeg
			{
				OFFSET 0.430247 -32.302673 3.732800
				CHANNELS 3 Xrotation Yrotation Zrotation
				JOINT LeftFoot
				{
					OFFSET -0.430247 -48.264931 -6.423300
					CHANNELS 3 Xrotation Yrotation Zrotation
					JOINT LeftToeBase
					{
						OFFSET 4.230900 -16.068199 23.438400
						CHANNELS 3 Xrotation Yrotation Zrotation
						JOINT LeftToe_End
						{
							OFFSET 4.510700 0.695400 19.974600
							CHANNELS 3 Xrotation Yrotation Zrotation
							End Site
							{
								OFFSET 0 0 0
							}
						}
					}
				}
			}
		}
	}
	JOINT RightUpLeg_virtual
	{
		OFFSET 0.000000 0.000000 0.000000
		CHANNELS 3 Xrotation Yrotation Zrotation
		JOINT RightUpLeg
		{
			OFFSET -11.333700 -6.187798 -0.413800
			CHANNELS 3 Xrotation Yrotation Zrotation
			JOINT RightLeg
			{
				OFFSET -0.430392 -32.302628 3.733000
				CHANNELS 3 Xrotation Yrotation Zrotation
				JOINT RightFoot
				{
					OFFSET 0.430392 -48.264973 -6.423500
					CHANNELS 3 Xrotation Yrotation Zrotation
					JOINT RightToeBase
					{
						OFFSET -4.230900 -16.068199 23.438400
						CHANNELS 3 Xrotation Yrotation Zrotation
						JOINT RightToe_End
						{
							OFFSET -4.510700 0.695400 19.974600
							CHANNELS 3 Xrotation Yrotation Zrotation
							End Site
							{
								OFFSET 0 0 0
							}
						}
					}
				}
			}
		}
	}
	JOINT Spine_virtual
	{
		OFFSET 0.000000 0.000000 0.000000
		CHANNELS 3 Xrotation Yrotation Zrotation
		JOINT Spine
		{
			OFFSET -0.002400 12.777504 0.315300
			CHANNELS 3 Xrotation Yrotation Zrotation
			JOINT Spine1
			{
				OFFSET -0.002067 5.816869 0.032633
				CHANNELS 3 Xrotation Yrotation Zrotation
				JOINT Spine1_split
				{
					OFFSET -0.002067 5.816869 0.032633
					CHANNELS 3 Xrotation Yrotation Zrotation
					JOINT Spine2
					{
						OFFSET -0.002067 5.816869 0.032633
						CHANNELS 3 Xrotation Yrotation Zrotation
						JOINT Neck_virtual
						{
							OFFSET 0.000000 0.000000 0.000000
							CHANNELS 3 Xrotation Yrotation Zrotation
							JOINT Neck
							{
								OFFSET -0.003700 21.199493 -0.826900
								CHANNELS 3 Xrotation Yrotation Zrotation
								JOINT Head
								{
									OFFSET 0.000000 20.442200 4.834800
									CHANNELS 3 Xrotation Yrotation Zrotation
									JOINT HeadTop_End
									{
										OFFSET 0.000000 34.668396 4.968400
										CHANNELS 3 Xrotation Yrotation Zrotation
										End Site
										{
											OFFSET 0 0 0
										}
									}
								}
							}
						}
						JOINT LeftShoulder_virtual
						{
							OFFSET 0.000000 0.000000 0.000000
							CHANNELS 3 Xrotation Yrotation Zrotation
							JOINT LeftShoulder
							{
								OFFSET 3.288150 8.794197 -1.372250
								CHANNELS 3 Xrotation Yrotation Zrotation
								JOINT LeftShoulder_split
								{
									OFFSET 3.288150 8.794197 -1.372250
									CHANNELS 3 Xrotation Yrotation Zrotation
									JOINT LeftArm
									{
										OFFSET 11.953299 -2.279007 -0.146200
										CHANNELS 3 Xrotation Yrotation Zrotation
										JOINT LeftForeArm
										{
											OFFSET 18.448900 0.000000 0.000000
											CHANNELS 3 Xrotation Yrotation Zrotation
											JOINT LeftHand
											{
												OFFSET 29.527798 0.000000 0.000000
												CHANNELS 3 Xrotation Yrotation Zrotation
												End Site
												{
													OFFSET 0 0 0
												}
											}
										}
									}
								}
							}
						}
						JOINT RightShoulder_virtual
						{
							OFFSET 0.000000 0.000000 0.000000
							CHANNELS 3 Xrotation Yrotation Zrotation
							JOINT RightShoulder
							{
								OFFSET -3.249400 8.794197 -1.372250
								CHANNELS 3 Xrotation Yrotation Zrotation
								JOINT RightShoulder_split
								{
									OFFSET -3.249400 8.794197 -1.372250
									CHANNELS 3 Xrotation Yrotation Zrotation
									JOINT RightArm
									{
										OFFSET -11.953299 -2.279007 -0.146200
										CHANNELS 3 Xrotation Yrotation Zrotation
										JOINT RightForeArm
										{
											OFFSET -18.448900 0.000000 0.000000
											CHANNELS 3 Xrotation Yrotation Zrotation
											JOINT RightHand
											{
												OFFSET -29.527802 0.000000 0.000000
												CHANNELS 3 Xrotation Yrotation Zrotation
												End Site
												{
													OFFSET 0 0 0
												}
											}
										}
									}
								}
							}
						}
					}
				}
			}
		}
	}
}
MOTION
Frames: 6
Frame Time: 0.03333333
1.686982 78.543785 2.599834 0.000000 0.000000 0.000000 29.223641 -58.349705 29.390700 -69.755622 19.964785 29.172663 48.265996 -18.553881 2.925721 2.422521 3.004298 -8.845617 -5.752921 -7.034712 0.750107 0.000000 0.000000 0.000000 24.593524 -54.990738 26.476904 -47.636188 3.489808 -28.726642 55.487214 3.667332 -4.696021 -28.927374 1.419351 24.990441 -0.596714 3.920835 -0.739761 0.000000 0.000000 0.000000 13.418420 -43.659122 18.004894 3.861722 10.186996 -0.477519 5.839117 8.838422 -4.091650 2.292213 -3.437955 2.033273 0.000000 0.000000 0.000000 -9.765957 8.508905 -2.725623 -20.694479 -9.124785 3.368232 3.400069 4.641096 -6.247942 0.000000 0.000000 0.000000 -8.093558 7.865121 -0.787290 2.095054 -24.466612 3.719047 -1.601482 2.636077 -4.164538 4.129318 20.799567 -59.667959 -34.410124 -59.841821 -33.919686 0.000000 0.000000 0.000000 -9.734783 8.313536 -1.731465 -0.705383 6.750477 3.066249 7.250462 3.715590 9.620320 15.512219 -10.948102 42.547977 -40.011409 54.622242 38.176079 0.000000 0.000000 0.000000 
0.831123 78.493721 2.427662 0.000000 0.000000 0.000000 31.121320 -58.256200 30.670766 -69.977269 20.121435 29.098604 48.558738 -19.438761 3.698446 2.503475 2.184004 -9.555102 -5.737525 -7.201166 1.569349 0.000000 0.000000 0.000000 26.541915 -54.290879 27.609202 -48.215067 4.030876 -27.863593 56.805095 4.068705 -5.227538 -28.465042 0.770988 26.842816 -1.997192 3.773230 -0.781083 0.000000 0.000000 0.000000 15.723012 -44.012035 20.046371 4.230302 8.718145 -0.033318 6.515467 7.422837 -3.755440 4.223608 -5.273348 3.432854 0.000000 0.000000 0.000000 -9.070505 7.403592 -2.348059 -20.381947 -7.823301 4.056912 2.729183 4.997031 -4.445201 0.000000 0.000000 0.000000 -7.717431 6.569650 -0.809061 1.869298 -23.935961 3.096764 -0.521269 -1.566110 -2.900845 8.226002 24.017636 -58.094891 -28.902246 -54.898745 -28.430022 0.000000 0.000000 0.000000 -9.792356 7.111716 -1.479774 -0.479350 7.061357 4.430865 5.368951 1.859610 9.014866 13.976722 -13.773836 43.802898 -47.865962 59.548547 45.493520 0.000000 0.000000 0.000000 
-0.840984 78.527756 2.419876 0.000000 0.000000 0.000000 33.488366 -56.974750 32.552962 -70.530050 19.832259 28.578475 48.300274 -19.781401 4.289662 2.430925 2.014105 -10.392196 -6.180139 -7.330417 2.326015 0.000000 0.000000 0.000000 29.470460 -52.790696 29.764752 -48.782908 4.705437 -26.863313 57.742426 3.893380 -5.836732 -29.803694 -0.974592 27.374312 -0.758278 3.743502 -0.337658 0.000000 0.000000 0.000000 20.025939 -43.586535 23.506378 5.042428 5.934155 0.741019 7.768725 4.100233 -3.419802 4.080994 -4.439167 3.903827 0.000000 0.000000 0.000000 -7.804328 4.394997 -2.193035 -19.272419 -6.524898 5.648636 0.553529 5.051936 -1.158615 0.000000 0.000000 0.000000 -6.514367 3.470140 -1.234445 2.021181 -22.493036 3.015982 1.140027 -6.360667 -0.642660 10.682467 28.207573 -55.598204 -20.980284 -48.467757 -20.787322 0.000000 0.000000 0.000000 -8.903880 3.916832 -1.753887 -0.488502 6.732880 6.585736 5.246836 1.583683 9.177282 9.775855 -15.974759 42.716287 -70.280666 65.665275 67.956113 0.000000 0.000000 0.000000 
-2.932840 78.602814 2.560261 0.000000 0.000000 0.000000 35.947146 -54.664097 34.673869 -71.042833 19.313427 27.630668 47.370780 -19.396591 4.554445 2.263884 2.552643 -10.897057 -7.012006 -7.382816 2.694848 0.000000 0.000000 0.000000 32.460078 -50.636632 32.330383 -49.552493 5.351108 -25.986964 58.227772 3.356774 -6.502093 -32.151114 -3.400695 27.220537 2.162316 3.909248 0.336659 0.000000 0.000000 0.000000 25.496540 -42.150938 27.504299 6.434172 2.367408 1.584507 9.626304 -0.305175 -3.079223 2.166677 -2.366970 3.564745 0.000000 0.000000 0.000000 -5.955816 0.171722 -2.286760 -17.625464 -5.143745 7.193488 -2.731892 4.249507 2.877441 0.000000 0.000000 0.000000 -4.366356 -0.767024 -1.857976 2.606390 -20.811749 3.515344 2.306463 -9.884066 1.045087 9.450086 32.367495 -51.003003 -13.386345 -41.050205 -13.528262 0.000000 0.000000 0.000000 -6.905413 -0.449824 -2.281439 -0.572366 6.256287 9.542861 6.340784 2.317037 9.509379 4.332957 -16.521201 39.056856 -96.241224 66.472904 94.502784 0.000000 0.000000 0.000000 
-5.133502 78.713448 2.825638 0.000000 0.000000 0.000000 38.010757 -51.532852 36.536144 -71.362834 18.735970 26.477247 45.971176 -18.649977 4.590822 2.088707 3.518779 -11.184582 -7.585802 -7.361640 2.530486 0.000000 0.000000 0.000000 35.095192 -47.850659 34.810626 -50.282603 5.778076 -25.455184 58.110075 2.999887 -7.332131 -34.856112 -5.899041 27.462586 3.925290 4.215162 0.947393 0.000000 0.000000 0.000000 30.713182 -40.115525 31.156229 8.381222 -1.299571 2.299235 12.284610 -4.721394 -2.694595 0.684590 -0.859313 2.296904 0.000000 0.000000 0.000000 -3.473549 -4.260343 -2.536000 -15.623426 -3.752337 7.853814 -6.215813 2.553915 6.587620 0.000000 0.000000 0.000000 -1.281674 -5.112612 -2.442045 3.507196 -19.733801 4.364438 3.654319 -11.637051 2.489606 3.402832 34.872207 -43.899029 -6.981248 -32.975696 -7.586674 0.000000 0.000000 0.000000 -3.700629 -4.869476 -2.778960 -0.658307 6.029286 13.177954 7.733129 3.451662 9.593860 -1.094825 -15.114618 34.002809 -106.811625 65.218410 106.025457 0.000000 0.000000 0.000000 
-7.051288 78.713829 3.001698 0.000000 0.000000 0.000000 39.432256 -48.135335 37.918656 -71.189361 18.298092 25.258461 44.624010 -18.007196 4.600608 1.640734 4.490038 -11.398034 -7.449132 -7.316604 2.104524 0.000000 0.000000 0.000000 36.922206 -44.939499 36.845776 -50.436145 5.713673 -25.399209 57.403785 2.949202 -8.276230 -37.728029 -8.013280 28.133346 3.785295 4.565461 1.436633 0.000000 0.000000 0.000000 34.557752 -37.644868 33.685516 10.374384 -4.362893 2.666502 15.857304 -8.197678 -2.267689 -0.474249 0.399488 0.633812 0.000000 0.000000 0.000000 -0.179650 -7.880265 -2.754300 -13.752277 -2.436549 6.916094 -9.050422 0.130996 9.183977 0.000000 0.000000 0.000000 2.746847 -8.578129 -2.809561 4.567537 -19.619896 5.267127 3.923475 -12.224021 2.060865 -7.134198 33.149770 -34.952803 -2.275993 -24.907354 -3.313169 0.000000 0.000000 0.000000 0.559594 -8.323879 -3.037192 -0.776908 6.738829 17.203237 8.190234 3.293297 10.220217 -5.240836 -12.002029 28.774436 -101.400729 65.982790 101.589474 0.000000 0.000000 0.000000 
